<svg width="9" height="9" viewBox="0 0 9 9" fill="none" xmlns="http://www.w3.org/2000/svg">
<path d="M4.5 8.27734C2.28689 8.27734 0.5 6.47406 0.5 4.27734C0.5 2.08062 2.28689 0.277344 4.5 0.277344C6.69672 0.277344 8.5 2.06423 8.5 4.27734C8.5 6.49046 6.69672 8.27734 4.5 8.27734ZM4.5 0.965868C2.68033 0.965868 1.18852 2.44128 1.18852 4.27734C1.18852 6.11341 2.66393 7.58882 4.5 7.58882C6.31967 7.58882 7.81147 6.11341 7.81147 4.27734C7.81147 2.44128 6.33606 0.965868 4.5 0.965868Z" fill="white"/>
<path d="M4.216 6.27734C3.76 6.27734 3.328 6.06682 3.004 5.68787C2.332 4.90191 2.332 3.63875 3.004 2.86682C3.328 2.48787 3.76 2.27734 4.216 2.27734C4.672 2.27734 5.104 2.48787 5.428 2.86682C5.524 2.9791 5.524 3.16155 5.428 3.28787C5.332 3.40015 5.176 3.40015 5.068 3.28787C4.84 3.0212 4.54 2.88085 4.216 2.88085C3.892 2.88085 3.592 3.0212 3.364 3.28787C2.896 3.83524 2.896 4.73348 3.364 5.28085C3.592 5.54752 3.892 5.68787 4.216 5.68787C4.54 5.68787 4.84 5.54752 5.068 5.28085C5.164 5.16857 5.32 5.16857 5.428 5.28085C5.524 5.39313 5.524 5.57559 5.428 5.70191C5.092 6.08085 4.672 6.27734 4.216 6.27734Z" fill="white"/>
</svg>
