<svg width="16" height="16" viewBox="0 0 16 16" fill="none" xmlns="http://www.w3.org/2000/svg">
<path d="M8.2193 1.67657C10.2057 1.67657 10.4403 1.68357 11.2244 1.72033C11.9489 1.75358 12.3427 1.87434 12.6052 1.97585C12.9518 2.11062 13.2003 2.27163 13.4611 2.53241C13.7219 2.79319 13.8829 3.03996 14.0176 3.38825C14.1191 3.65077 14.2399 4.04456 14.2732 4.76914C14.3082 5.55321 14.3169 5.78949 14.3169 7.77419C14.3169 9.75889 14.3099 9.99516 14.2732 10.7792C14.2399 11.5038 14.1191 11.8976 14.0176 12.1601C13.8829 12.5067 13.7219 12.7552 13.4611 13.016C13.2003 13.2767 12.9535 13.4378 12.6052 13.5725C12.3427 13.674 11.9489 13.7948 11.2244 13.828C10.4403 13.8631 10.2057 13.8718 8.2193 13.8718C6.23285 13.8718 5.99832 13.8648 5.21424 13.828C4.48967 13.7948 4.09588 13.674 3.83335 13.5725C3.48682 13.4378 3.23829 13.2767 2.97752 13.016C2.71674 12.7552 2.55573 12.5084 2.42096 12.1601C2.31945 11.8976 2.19869 11.5038 2.16544 10.7792C2.13043 9.99516 2.12168 9.75889 2.12168 7.77419C2.12168 5.78949 2.12868 5.55321 2.16544 4.76914C2.19869 4.04456 2.31945 3.65077 2.42096 3.38825C2.55573 3.04171 2.71674 2.79319 2.97752 2.53241C3.23829 2.27163 3.48507 2.11062 3.83335 1.97585C4.09588 1.87434 4.48967 1.75358 5.21424 1.72033C5.99832 1.68532 6.2346 1.67657 8.2193 1.67657ZM8.2193 0.335938C6.19959 0.335938 5.94582 0.344688 5.15299 0.381442C4.36191 0.418196 3.8211 0.542458 3.34681 0.727977C2.85851 0.918746 2.44371 1.17252 2.02892 1.58556C1.61588 1.99861 1.36036 2.4134 1.17134 2.90345C0.987568 3.37599 0.861555 3.9168 0.824802 4.70963C0.788048 5.50246 0.779297 5.75623 0.779297 7.77594C0.779297 9.79564 0.788048 10.0494 0.824802 10.8422C0.861555 11.6333 0.985818 12.1741 1.17134 12.6484C1.36211 13.1367 1.61588 13.5515 2.02892 13.9663C2.44196 14.3794 2.85676 14.6349 3.34681 14.8239C3.81935 15.0077 4.36016 15.1337 5.15299 15.1704C5.94582 15.2072 6.19959 15.2159 8.2193 15.2159C10.239 15.2159 10.4928 15.2072 11.2856 15.1704C12.0767 15.1337 12.6175 15.0094 13.0918 14.8239C13.5801 14.6331 13.9949 14.3794 14.4097 13.9663C14.8227 13.5533 15.0782 13.1385 15.2673 12.6484C15.451 12.1759 15.577 11.6351 15.6138 10.8422C15.6505 10.0494 15.6593 9.79564 15.6593 7.77594C15.6593 5.75623 15.6505 5.50246 15.6138 4.70963C15.577 3.91855 15.4528 3.37774 15.2673 2.90345C15.0765 2.41515 14.8227 2.00036 14.4097 1.58556C13.9966 1.17252 13.5818 0.916996 13.0918 0.727977C12.6192 0.544208 12.0784 0.418196 11.2856 0.381442C10.4928 0.344688 10.239 0.335938 8.2193 0.335938Z" fill="#262626"/>
<path d="M8.23584 3.95422C6.12688 3.95422 4.41695 5.66414 4.41695 7.77311C4.41695 9.88207 6.12688 11.592 8.23584 11.592C10.3448 11.592 12.0547 9.88207 12.0547 7.77311C12.0547 5.66414 10.3448 3.95422 8.23584 3.95422ZM8.23584 10.2531C6.8672 10.2531 5.75584 9.14349 5.75584 7.77311C5.75584 6.40272 6.86545 5.2931 8.23584 5.2931C9.60623 5.2931 10.7158 6.40272 10.7158 7.77311C10.7158 9.14349 9.60623 10.2531 8.23584 10.2531Z" fill="#262626"/>
<path d="M12.1877 4.69315C12.6806 4.69315 13.0803 4.29352 13.0803 3.80056C13.0803 3.3076 12.6806 2.90797 12.1877 2.90797C11.6947 2.90797 11.2951 3.3076 11.2951 3.80056C11.2951 4.29352 11.6947 4.69315 12.1877 4.69315Z" fill="#262626"/>
</svg>
