<svg width="17" height="13" viewBox="0 0 17 13" fill="none" xmlns="http://www.w3.org/2000/svg">
<g id="Isolation_Mode" clip-path="url(#clip0_1966_19560)">
<path id="Vector" fill-rule="evenodd" clip-rule="evenodd" d="M16.7485 3.15291C16.7485 3.15291 16.5879 2.00647 16.0838 1.49347C15.4459 0.828801 14.7322 0.82434 14.4066 0.784192C12.0691 0.619141 8.54945 0.619141 8.54945 0.619141C8.54945 0.619141 5.03876 0.619141 2.70127 0.788653C2.37563 0.828801 1.66189 0.833262 1.02399 1.49793C0.524373 2.00201 0.363782 3.15737 0.363782 3.15737C0.261182 4.054 0.203191 4.95955 0.19873 5.86511V7.13199C0.207652 8.03754 0.261182 8.93864 0.363782 9.83973C0.363782 9.83973 0.528834 10.9862 1.02845 11.4992C1.66635 12.1638 2.50053 12.1415 2.87524 12.2129C4.2135 12.3423 8.55837 12.378 8.55837 12.378C8.55837 12.378 12.0735 12.378 14.411 12.204C14.7367 12.1638 15.4504 12.1638 16.0883 11.4992C16.5924 10.9951 16.753 9.83973 16.753 9.83973C16.8556 8.93864 16.9136 8.03754 16.918 7.13199V5.86065C16.9091 4.95509 16.8511 4.04954 16.7485 3.15291Z" fill="#262626"/>
<path id="Vector_2" fill-rule="evenodd" clip-rule="evenodd" d="M6.82959 8.6631V3.96582L11.344 6.32561L6.82959 8.6631Z" fill="white"/>
</g>
<defs>
<clipPath id="clip0_1966_19560">
<rect width="16.7193" height="11.7588" fill="white" transform="translate(0.199707 0.620117)"/>
</clipPath>
</defs>
</svg>
